<?xml version="1.0" encoding="utf-8"?>
<!-- Generator: Adobe Illustrator 16.0.0, SVG Export Plug-In . SVG Version: 6.00 Build 0)  -->
<svg version="1.2" baseProfile="tiny" id="Layer_1" xmlns="http://www.w3.org/2000/svg" xmlns:xlink="http://www.w3.org/1999/xlink"
	 x="0px" y="0px" width="60px" height="40px" viewBox="0 0 60 40" xml:space="preserve">
<path fill="#FFFFFF" d="M30.075,23.988h0.013c0.451,0,0.897-0.131,1.258-0.369l0.099-0.062c0.021-0.015,0.042-0.027,0.065-0.041
	l1.139-0.944L59.844,0.131C59.787,0.053,59.691,0,59.589,0H0.41C0.336,0,0.268,0.027,0.214,0.071l28.453,23.452
	C29.025,23.82,29.537,23.988,30.075,23.988z M0.093,3.18v33.267L20.476,19.98L0.093,3.18z M39.546,20.093l20.36,16.36V3.291
	L39.546,20.093z M33.072,25.433c-0.813,0.665-1.874,1.032-2.989,1.032c-1.119,0-2.18-0.364-2.989-1.026l-4.668-3.851L0.093,39.626
	v0.057C0.093,39.854,0.24,40,0.414,40h59.177c0.17,0,0.315-0.146,0.315-0.317v-0.054L37.594,21.701L33.072,25.433z"/>
</svg>
