<?xml version="1.0" encoding="utf-8"?>
<!-- Generator: Adobe Illustrator 16.0.0, SVG Export Plug-In . SVG Version: 6.00 Build 0)  -->
<svg version="1.2" baseProfile="tiny" id="Layer_1" xmlns="http://www.w3.org/2000/svg" xmlns:xlink="http://www.w3.org/1999/xlink"
	 x="0px" y="0px" width="60px" height="40px" viewBox="0 0 60 40" xml:space="preserve">
<path fill="#FFFFFF" d="M54.587,4.734c-1.813,0.801-3.756,1.349-5.798,1.588c2.085-1.251,3.684-3.23,4.44-5.583
	c-1.957,1.156-4.117,1.996-6.418,2.453C44.969,1.227,42.345,0,39.439,0c-5.58,0-10.103,4.525-10.103,10.097
	c0,0.792,0.092,1.564,0.262,2.302C21.207,11.978,13.761,7.958,8.78,1.846C7.911,3.337,7.414,5.071,7.414,6.924
	c0,3.506,1.786,6.598,4.493,8.408c-1.656-0.058-3.212-0.511-4.576-1.269v0.125c0,4.894,3.486,8.972,8.1,9.905
	c-0.843,0.229-1.736,0.354-2.66,0.354c-0.65,0-1.282-0.065-1.9-0.187c1.285,4.016,5.015,6.936,9.435,7.017
	c-3.456,2.708-7.813,4.319-12.545,4.319c-0.815,0-1.619-0.05-2.41-0.139C9.821,38.327,15.128,40,20.833,40
	C39.412,40,49.57,24.61,49.57,11.263l-0.032-1.31C51.52,8.535,53.235,6.755,54.587,4.734z"/>
</svg>
